# Blender v2.77 (sub 0) OBJ File: ''
# www.blender.org
mtllib cube.mtl
o Cube
v 1.000000 -1.000000 -1.000000
v 1.000000 -1.000000 1.000000
v -1.000000 -1.000000 1.000000
v -1.000000 -1.000000 -1.000000
v 1.000000 1.000000 -0.999999
v 0.999999 1.000000 1.000001
v -1.000000 1.000000 1.000000
v -1.000000 1.000000 -1.000000
vt 2.0000 0.0000
vt 0.0000 2.0000
vt 0.0000 0.0000
vt 2.0000 0.0000
vt 0.0000 2.0000
vt 0.0000 0.0000
vt 2.0000 0.0000
vt 0.0000 2.0000
vt 0.0000 0.0000
vt 2.0000 2.0000
vt 2.0000 0.0000
vt 0.0000 2.0000
vt 2.0000 2.0000
vt 2.0000 2.0000
vt 2.0000 2.0000
vt 2.0000 0.0000
vt 2.0000 2.0000
vt 2.0000 0.0000
vt 0.0000 2.0000
vt 0.0000 0.0000
vn 0.5773 -0.5773 0.5773
vn -0.5773 -0.5773 -0.5773
vn 0.5773 -0.5773 -0.5773
vn -0.5773 0.5773 -0.5773
vn 0.5773 0.5773 0.5773
vn 0.5773 0.5773 -0.5773
vn -0.5773 -0.5773 0.5773
vn -0.5773 0.5773 0.5773
usemtl Material
s 1
f 2/1/1 4/2/2 1/3/3
f 8/4/4 6/5/5 5/6/6
f 5/7/6 2/8/1 1/3/3
f 3/9/7 8/10/4 4/2/2
f 1/11/3 8/12/4 5/6/6
f 2/1/1 3/13/7 4/2/2
f 8/4/4 7/14/8 6/5/5
f 5/7/6 6/15/5 2/8/1
f 3/9/7 7/16/8 8/10/4
f 1/11/3 4/17/2 8/12/4
usemtl Material.001
f 6/18/5 3/19/7 2/20/1
f 6/18/5 7/14/8 3/19/7
